<?xml version="1.0" standalone="no"?>
<!DOCTYPE svg PUBLIC "-//W3C//DTD SVG 20010904//EN"
 "http://www.w3.org/TR/2001/REC-SVG-20010904/DTD/svg10.dtd">
<svg version="1.0" xmlns="http://www.w3.org/2000/svg"
 width="584.000000pt" height="582.000000pt" viewBox="0 0 584.000000 582.000000"
 preserveAspectRatio="xMidYMid meet">

<g transform="translate(0.000000,582.000000) scale(0.100000,-0.100000)"
fill="#000000" stroke="none">
<path d="M2835 5807 c-47 -11 -158 -48 -165 -56 -3 -3 -17 -13 -33 -21 -29
-17 -192 -166 -261 -239 -22 -24 -527 -530 -1121 -1125 -594 -595 -1087 -1091
-1095 -1102 -57 -74 -70 -94 -93 -140 -24 -48 -49 -146 -42 -168 2 -6 6 -38 9
-71 6 -66 51 -211 72 -236 8 -8 14 -23 14 -33 0 -9 5 -14 10 -11 6 3 10 0 10
-8 0 -8 62 -75 138 -150 207 -205 699 -697 855 -855 75 -76 137 -136 137 -133
1 3 7 -5 15 -19 8 -14 14 -22 15 -18 0 7 549 -540 752 -749 60 -61 108 -109
108 -107 0 3 63 -57 139 -133 321 -319 341 -336 446 -378 66 -26 175 -41 200
-27 5 4 27 8 49 10 22 2 48 8 57 13 10 5 28 9 40 9 50 0 146 60 254 160 155
143 1137 1121 1300 1293 82 88 570 586 924 945 79 81 161 173 183 206 64 100
84 198 65 321 -6 42 -64 206 -75 215 -4 3 -14 18 -21 33 -8 15 -36 50 -63 78
-26 28 -48 55 -48 61 0 6 -2 9 -4 7 -3 -3 -83 71 -177 163 -95 92 -177 168
-182 168 -4 0 -5 5 -2 10 3 6 2 10 -3 10 -5 0 -65 57 -133 126 -115 118 -534
536 -816 815 -68 67 -123 122 -123 123 0 8 -564 566 -572 566 -5 0 -6 5 -3 10
3 6 2 10 -4 10 -5 0 -74 66 -153 146 -186 189 -271 250 -396 284 -47 12 -142
11 -207 -3z m199 -299 c26 -13 188 -168 447 -427 223 -223 430 -429 460 -457
30 -28 68 -66 85 -85 17 -19 59 -60 93 -92 33 -32 61 -61 61 -66 0 -4 -11 -20
-24 -34 -35 -38 -82 -124 -106 -197 -18 -53 -21 -80 -17 -150 6 -108 50 -231
103 -291 8 -8 14 -23 14 -32 0 -9 4 -17 10 -17 5 0 12 -11 16 -25 3 -14 10
-25 14 -25 6 0 18 -47 24 -100 3 -18 -10 -126 -17 -158 -18 -72 -107 -171
-189 -211 -27 -12 -50 -27 -53 -31 -3 -5 -13 -9 -23 -9 -9 0 -39 0 -67 0 -119
-2 -155 7 -226 51 -158 100 -213 120 -329 122 -136 1 -242 -33 -348 -112 -42
-31 -45 -32 -58 -15 -7 10 -14 23 -14 29 0 6 -7 17 -15 24 -8 7 -13 16 -10 20
3 5 1 19 -4 32 -12 34 12 135 47 193 52 85 104 198 117 250 12 52 13 173 1
262 -13 99 -80 243 -138 294 -10 9 -18 19 -18 23 0 18 -126 114 -195 149 -154
77 -333 92 -485 42 -53 -17 -118 -49 -170 -84 -90 -58 -92 -59 -182 -66 -59
-4 -119 17 -152 54 -15 17 -5 29 181 213 109 107 278 276 375 374 431 437 551
549 598 557 3 0 23 6 44 12 51 15 97 10 150 -17z m-554 -1308 c61 -16 106 -45
160 -101 62 -65 70 -76 70 -94 0 -8 4 -15 9 -15 17 0 23 -35 26 -140 l3 -105
-43 -85 c-128 -252 -131 -263 -129 -376 1 -34 8 -79 15 -100 7 -22 12 -43 11
-48 -4 -12 19 -77 32 -93 6 -8 17 -20 24 -28 6 -7 12 -18 12 -23 0 -5 12 -22
26 -37 14 -15 23 -33 20 -40 -9 -23 -92 -56 -147 -57 -70 -2 -120 15 -194 66
-140 97 -254 123 -445 103 -125 -13 -319 -112 -401 -205 -98 -111 -139 -196
-164 -338 -13 -78 -13 -213 1 -235 3 -5 7 -22 9 -38 5 -42 15 -73 30 -91 6 -8
23 -35 36 -60 13 -25 31 -54 41 -65 10 -12 27 -47 37 -78 22 -64 17 -137 -14
-197 -28 -55 -40 -50 -142 54 -53 53 -99 96 -104 96 -4 0 -11 9 -14 20 -4 11
-9 19 -13 17 -9 -3 -100 91 -94 98 3 3 0 5 -8 5 -12 0 -464 448 -508 504 -12
16 -22 25 -22 21 0 -4 -16 13 -36 36 -20 24 -46 52 -58 62 -155 134 -192 196
-188 314 2 79 33 121 246 331 82 81 163 162 180 181 17 18 54 56 83 85 29 28
134 134 235 235 334 337 400 401 408 401 11 0 31 -26 25 -33 -3 -4 -2 -5 1 -3
3 2 32 -11 63 -29 111 -65 163 -80 291 -79 127 0 150 7 247 71 97 64 154 94
192 99 13 1 25 5 27 7 8 8 119 -1 164 -13z m2067 -182 c233 -229 548 -544 730
-730 89 -91 164 -163 168 -160 3 3 5 0 5 -6 0 -7 13 -26 28 -42 38 -40 67
-134 58 -193 -4 -24 -20 -66 -37 -92 -30 -47 -1100 -1125 -1117 -1125 -5 0
-16 7 -23 16 -37 44 -161 106 -241 119 -18 3 -40 8 -48 10 -55 16 -260 -11
-260 -35 0 -4 -18 -15 -40 -25 -22 -10 -40 -22 -40 -27 0 -4 -7 -8 -15 -8 -8
0 -15 -3 -15 -8 0 -12 -113 -61 -167 -71 -42 -8 -137 -3 -163 9 -3 1 -16 6
-30 11 -54 20 -93 46 -136 91 -24 26 -44 51 -44 57 0 6 -4 11 -10 11 -5 0 -10
6 -10 14 0 8 -6 21 -12 28 -16 16 -18 28 -25 145 -6 111 3 142 70 243 72 106
101 193 101 305 0 92 -29 209 -60 246 -8 8 -14 19 -14 24 0 4 -16 27 -35 51
-41 50 -42 55 -13 74 58 39 89 46 161 38 62 -6 80 -13 141 -55 69 -47 156 -95
156 -87 0 3 6 2 13 -3 6 -4 17 -8 22 -9 6 -1 28 -6 50 -12 50 -13 129 -17 175
-8 19 4 46 9 60 11 117 16 193 42 272 96 166 112 270 291 293 504 11 101 -22
269 -66 335 -102 155 -125 215 -110 295 11 57 42 115 64 115 5 0 79 -69 164
-152z m-2463 -1271 c9 9 80 -19 134 -53 29 -19 56 -34 61 -34 5 0 14 -6 20
-14 10 -12 102 -50 154 -63 12 -3 56 -7 99 -9 64 -3 90 1 169 28 51 17 98 35
104 39 5 5 31 24 56 43 l47 34 21 -25 c31 -34 41 -66 42 -131 1 -45 -5 -70
-30 -121 -17 -35 -37 -71 -45 -80 -37 -42 -112 -238 -97 -254 4 -4 4 -29 0
-55 -4 -26 -5 -50 -3 -53 2 -4 4 -30 5 -60 2 -55 53 -213 86 -266 42 -68 92
-124 150 -169 128 -101 250 -146 406 -150 86 -2 108 1 187 28 49 16 127 52
172 80 46 28 99 56 119 63 63 23 194 -5 223 -47 14 -19 -14 -49 -527 -562
-534 -533 -593 -586 -652 -586 -13 0 -27 -5 -30 -11 -10 -15 -92 -2 -141 23
-40 20 -129 99 -191 171 -18 21 -33 35 -33 33 0 -3 -30 27 -67 65 -38 39 -164
166 -281 282 -118 117 -224 223 -235 236 -12 13 -33 34 -46 45 -67 59 -291
288 -287 294 2 4 24 36 48 72 59 87 92 186 92 275 1 125 -16 207 -48 245 -8 8
-28 42 -46 75 -18 33 -36 62 -40 65 -4 3 -15 30 -25 60 -42 125 -3 294 87 376
82 75 135 102 223 111 28 3 51 6 53 8 2 2 16 -1 32 -5 16 -4 31 -6 34 -3z"/>
</g>
</svg>
